<svg xmlns="http://www.w3.org/2000/svg" xmlns:xlink="http://www.w3.org/1999/xlink" width="105.951" height="106.951" viewBox="0 0 105.951 106.951">
  <defs>
    <clipPath id="clip-path">
      <path id="Clip_2" data-name="Clip 2" d="M0,0H105.951V106.951H0Z" transform="translate(0 0.049)" fill="none"/>
    </clipPath>
  </defs>
  <g id="Group_7" data-name="Group 7" transform="translate(0 -1)">
    <g id="Group_3" data-name="Group 3" transform="translate(0 0.951)">
      <path id="Clip_2-2" data-name="Clip 2" d="M0,0H105.951V106.951H0Z" transform="translate(0 0.049)" fill="none"/>
      <g id="Group_3-2" data-name="Group 3" clip-path="url(#clip-path)">
        <path id="Fill_1" data-name="Fill 1" d="M96.9,0H56.5a5.976,5.976,0,1,0,0,11.951H94V95H11.951V57.117A5.976,5.976,0,0,0,0,57.117v40.75a9.078,9.078,0,0,0,9.051,9.084H96.9a9.078,9.078,0,0,0,9.052-9.084V9.084A9.078,9.078,0,0,0,96.9,0" transform="translate(0 0.049)" fill="#fff"/>
      </g>
    </g>
    <g id="Group_6" data-name="Group 6" transform="translate(0 0.951)">
      <path id="Fill_4" data-name="Fill 4" d="M5.976,43.428a5.975,5.975,0,0,0,5.976-5.976V22.125L69.69,79.864a5.976,5.976,0,1,0,8.451-8.452L18.68,11.951H36.453A5.976,5.976,0,0,0,36.453,0H9.057V0A9.078,9.078,0,0,0,0,9.056v28.4a5.975,5.975,0,0,0,5.976,5.976" transform="translate(0 0.049)" fill="#fff"/>
    </g>
  </g>
</svg>
