<svg id="Logo_Title" data-name="Logo/ Title" xmlns="http://www.w3.org/2000/svg" width="948" height="203" viewBox="0 0 948 203">
  <rect id="Logo_Title_background" data-name="Logo/ Title background" width="948" height="203" fill="none"/>
  <path id="Fill_1" data-name="Fill 1" d="M59.836,85l-6.21,60.479H17.6L0,0H36.645l5.178,59.441L47.206,0H79.091l5.176,59.441L89.65,0h30.436l-17.6,145.483H66.46Z" transform="translate(600.428 28.758)" fill="#fff"/>
  <path id="Fill_2" data-name="Fill 2" d="M83.722,145.484H49.027L47.365,127.4H31.993l-1.454,18.081H0L19.112,0h45.5L83.722,145.483ZM39.678,40.942h0L34.694,97.89h9.972L39.679,40.942Z" transform="translate(717.977 28.758)" fill="#fff"/>
  <path id="Fill_3" data-name="Fill 3" d="M35.064,0V115.347H59.2v30.136H0V0Z" transform="translate(809.31 28.758)" fill="#fff"/>
  <path id="Fill_4" data-name="Fill 4" d="M0,0V145.483H59.2V115.346H35.064V0Z" transform="translate(876.963 28.758)" fill="#fff"/>
  <path id="Fill_5" data-name="Fill 5" d="M25.658,40H10.13c-3.954,0-6-.6-7.825-2.28C.689,36.244,0,34.271,0,31.126V8.818c0-3.024.727-5.2,2.222-6.658S5.944,0,9.039,0H26.387c3.3,0,5.595.858,7.218,2.7,1.344,1.508,1.821,3.078,1.821,6V31.126c0,3.117-.764,5.327-2.335,6.755S29.087,40,25.658,40ZM17.712,9.117c-1.451,0-1.941.772-1.941,3.059V27.888c0,2.286.49,3.058,1.941,3.058s1.941-.772,1.941-3.058V12.176C19.653,9.889,19.164,9.117,17.712,9.117Z" transform="translate(473.172 58.715)" fill="#fff"/>
  <path id="Fill_7" data-name="Fill 7" d="M0,0H14.661L18.4,9.246a36.442,36.442,0,0,1,2.715,9.306h.845A55.929,55.929,0,0,1,20.878,7.337V0h14.66V39.788H20.878L17.257,30.6a34.379,34.379,0,0,1-2.837-9.842h-.846a82.545,82.545,0,0,1,1.087,11.573v7.456H0Z" transform="translate(513.203 58.687)" fill="#fff"/>
  <path id="Fill_9" data-name="Fill 9" d="M7.886,9.126H0V0H31.246V9.126H23.418V39.788H7.886Z" transform="translate(460.581 103.054)" fill="#fff"/>
  <path id="Fill_11" data-name="Fill 11" d="M0,0H15.593V13.48h3.945V0H35.072V39.788H19.537V22.548H15.593V39.788H0Z" transform="translate(495.738 103.054)" fill="#fff"/>
  <path id="Fill_13" data-name="Fill 13" d="M0,0H25.153V9.066H15.593v4.295h9.561v9.068H15.593v8.293h9.561v9.066H0Z" transform="translate(535.478 103.054)" fill="#fff"/>
  <path id="Fill_15" data-name="Fill 15" d="M46.267,145H0V0H45.852a44.3,44.3,0,0,1,13.7,1.913,24.232,24.232,0,0,1,9.716,5.778,24.181,24.181,0,0,1,5.787,9.7,44.1,44.1,0,0,1,1.916,13.681V47.437c0,6.661-1.357,11.827-4.15,15.794-2.573,3.656-6.374,6.281-11.62,8.025,5.667,1.363,9.688,3.625,12.294,6.914,2.618,3.305,3.89,7.751,3.89,13.592v22.165a44.1,44.1,0,0,1-1.916,13.681,22.995,22.995,0,0,1-15.5,15.477A44.3,44.3,0,0,1,46.267,145ZM34.856,85.343v31.071h4.978c1.841,0,2.7-.79,2.7-2.485v-26.1c0-1.7-.857-2.486-2.7-2.486Zm0-56.757V58.622h4.771c1.84,0,2.7-.79,2.7-2.486V31.279c0-1.862-.832-2.693-2.7-2.693Z" transform="translate(11.839 28.845)" fill="#fff"/>
  <path id="Fill_18" data-name="Fill 18" d="M35.271,0V114.964H59.546V145H0V0Z" transform="translate(101.052 28.845)" fill="#fff"/>
  <path id="Fill_20" data-name="Fill 20" d="M47.718,147.484h-16.6a44.3,44.3,0,0,1-13.7-1.913A24.232,24.232,0,0,1,7.7,139.794a24.178,24.178,0,0,1-5.786-9.7A44.1,44.1,0,0,1,0,116.414V31.071A44.1,44.1,0,0,1,1.916,17.39,24.179,24.179,0,0,1,7.7,7.69a24.23,24.23,0,0,1,9.715-5.777A44.3,44.3,0,0,1,31.119,0h16.6a44.3,44.3,0,0,1,13.7,1.913A24.232,24.232,0,0,1,71.137,7.69a24.178,24.178,0,0,1,5.787,9.7,44.1,44.1,0,0,1,1.916,13.681v85.343a44.092,44.092,0,0,1-1.916,13.68,23,23,0,0,1-15.5,15.477A44.3,44.3,0,0,1,47.718,147.484ZM37.967,29c-1.865,0-2.7.83-2.7,2.693v84.1c0,1.863.832,2.693,2.7,2.693h2.9c1.865,0,2.7-.831,2.7-2.693v-84.1c0-1.862-.832-2.693-2.7-2.693Z" transform="translate(169.931 27.604)" fill="#fff"/>
  <path id="Fill_23" data-name="Fill 23" d="M47.718,147.484h-16.6a44.3,44.3,0,0,1-13.7-1.913A24.232,24.232,0,0,1,7.7,139.794a24.178,24.178,0,0,1-5.786-9.7A44.1,44.1,0,0,1,0,116.414V31.071A44.1,44.1,0,0,1,1.916,17.39,24.178,24.178,0,0,1,7.7,7.69a24.23,24.23,0,0,1,9.715-5.777A44.3,44.3,0,0,1,31.119,0h16.6a44.3,44.3,0,0,1,13.7,1.913A24.231,24.231,0,0,1,71.136,7.69a24.178,24.178,0,0,1,5.786,9.7,44.1,44.1,0,0,1,1.916,13.681v85.343a44.094,44.094,0,0,1-1.916,13.68,23,23,0,0,1-15.5,15.477A44.3,44.3,0,0,1,47.718,147.484ZM37.967,29c-1.865,0-2.7.83-2.7,2.693v84.1c0,1.863.832,2.693,2.7,2.693h2.9c1.865,0,2.7-.831,2.7-2.693v-84.1c0-1.862-.832-2.693-2.7-2.693Z" transform="translate(260.388 27.604)" fill="#fff"/>
  <path id="Fill_26" data-name="Fill 26" d="M42.946,145H0V0H42.946A50.717,50.717,0,0,1,58.523,2.152a30.341,30.341,0,0,1,6.068,2.709A24.617,24.617,0,0,1,73.349,13.6a30.247,30.247,0,0,1,2.713,6.059,50.488,50.488,0,0,1,2.156,15.553v74.572a50.478,50.478,0,0,1-2.156,15.551,30.243,30.243,0,0,1-2.713,6.058,24.617,24.617,0,0,1-8.757,8.742,30.339,30.339,0,0,1-6.068,2.709A50.718,50.718,0,0,1,42.946,145ZM35.27,29v87h3.735c2.726,0,3.941-1.278,3.941-4.143V32.936c0-2.686-1.252-3.936-3.941-3.936Z" transform="translate(351.259 28.845)" fill="#fff"/>
</svg>
