<svg id="Logo_lockup" data-name="Logo/ lockup" xmlns="http://www.w3.org/2000/svg" xmlns:xlink="http://www.w3.org/1999/xlink" width="485" height="60" viewBox="0 0 485 60">
  <defs>
    <clipPath id="clip-path">
      <path id="Clip_10" data-name="Clip 10" d="M0,58.2H484.422V0H0Z" fill="none"/>
    </clipPath>
  </defs>
  <g id="Logo_lockup-2" data-name="Logo/ lockup">
    <rect id="Logo_lockup_background" data-name="Logo/ lockup background" width="485" height="60" fill="none"/>
    <g id="Group_42" data-name="Group 42" transform="translate(0 0.75)">
      <path id="Fill_1" data-name="Fill 1" d="M0,17.045H1.346V0H0Z" transform="translate(244.467 20.576)" fill="#fefefe"/>
      <path id="Fill_2" data-name="Fill 2" d="M40.6,58.2H0V0H40.6V58.2ZM5.851,5.86V52.338H34.724V5.86Z" transform="translate(0 0)" fill="#fecc05"/>
      <g id="Group_41" data-name="Group 41" transform="translate(0 0)">
        <path id="Fill_3" data-name="Fill 3" d="M15.156,20.256H12.64C9.343,15.6,6.073,10.967,2.805,5.729H2.777V20.256H0V0H2.516c3.3,4.629,6.567,9.23,9.806,14.438h.058V0h2.777V20.256" transform="translate(52.41 5.851)" fill="#fefefe"/>
        <path id="Fill_5" data-name="Fill 5" d="M3.009,20.257H0L7,0H9.892l6.45,20.255H12.466l-1.591-5.528h-6.1L3.009,20.256Zm5-16.267c-.6,2.579-1.239,4.661-1.918,6.865v0c-.139.45-.282.916-.424,1.38h4.686c-.163-.576-.326-1.148-.483-1.7C9.3,8.525,8.7,6.444,8.07,3.99Z" transform="translate(68.491 5.852)" fill="#fefefe"/>
        <path id="Fill_7" data-name="Fill 7" d="M5.322,20.256V2.717H0V0H14.115V2.717H8.792V20.256Z" transform="translate(82.779 5.851)" fill="#fefefe"/>
        <path id="Clip_10-2" data-name="Clip 10" d="M0,58.2H484.422V0H0Z" fill="none"/>
        <g id="Group_41-2" data-name="Group 41" clip-path="url(#clip-path)">
          <path id="Fill_9" data-name="Fill 9" d="M0,20.256H3.441V0H0Z" transform="translate(98.022 5.852)" fill="#fefefe"/>
          <path id="Fill_11" data-name="Fill 11" d="M8.59,20.951a7.67,7.67,0,0,1-6.28-3.114A12.591,12.591,0,0,1,0,10.187,11.258,11.258,0,0,1,2.44,2.966a7.859,7.859,0,0,1,12.3,0,11.256,11.256,0,0,1,2.441,7.221,12.59,12.59,0,0,1-2.31,7.65A7.671,7.671,0,0,1,8.59,20.951Zm0-18.058A4.178,4.178,0,0,0,4.856,5.14,10.236,10.236,0,0,0,3.7,10.187,12.068,12.068,0,0,0,4.79,15.578a4.149,4.149,0,0,0,7.6,0,12.067,12.067,0,0,0,1.088-5.391A10.236,10.236,0,0,0,12.325,5.14,4.178,4.178,0,0,0,8.59,2.893Z" transform="translate(103.576 5.503)" fill="#fefefe"/>
          <path id="Fill_12" data-name="Fill 12" d="M15.156,20.256H12.64C9.344,15.6,6.073,10.967,2.806,5.729H2.775V20.256H0V0H2.518c3.3,4.629,6.565,9.23,9.8,14.438h.058V0h2.776V20.256" transform="translate(122.868 5.851)" fill="#fefefe"/>
          <path id="Fill_13" data-name="Fill 13" d="M3.009,20.257H0L7,0H9.893l6.451,20.255H12.468l-1.591-5.528h-6.1L3.01,20.256ZM8.015,3.99c-.6,2.594-1.247,4.687-1.931,6.9-.138.448-.276.895-.414,1.348h4.687c-.169-.6-.338-1.193-.5-1.767C9.288,8.479,8.7,6.417,8.072,3.99Z" transform="translate(138.948 5.852)" fill="#fefefe"/>
          <path id="Fill_14" data-name="Fill 14" d="M0,0H3.441V17.536H10.3v2.72H0Z" transform="translate(156.305 5.852)" fill="#fefefe"/>
          <path id="Fill_15" data-name="Fill 15" d="M15.475,11.343v8.363a15.9,15.9,0,0,1-5.756,1.245C3.761,20.951,0,16.323,0,10.359,0,4.832,3.761,0,9.835,0a8.658,8.658,0,0,1,4.917,1.562l-1.128,2.4a7.531,7.531,0,0,0-3.7-1.07c-3.7,0-6.22,2.923-6.22,7.523,0,4.805,2.894,7.642,5.872,7.642a5.11,5.11,0,0,0,2.43-.49V11.343h3.471" transform="translate(49.955 31.711)" fill="#fefefe"/>
          <path id="Fill_16" data-name="Fill 16" d="M9.255,2.723H3.471V8.278H9.14V11H3.471v6.541H10.3V20.26H0V0H9.255Z" transform="translate(68.582 32.057)" fill="#fefefe"/>
          <path id="Fill_17" data-name="Fill 17" d="M8.59,20.951a7.669,7.669,0,0,1-6.28-3.114A12.591,12.591,0,0,1,0,10.186a11.257,11.257,0,0,1,2.44-7.22,7.858,7.858,0,0,1,12.3,0,11.255,11.255,0,0,1,2.441,7.22,12.59,12.59,0,0,1-2.31,7.65A7.671,7.671,0,0,1,8.59,20.951ZM8.59,2.9A4.178,4.178,0,0,0,4.855,5.141,10.229,10.229,0,0,0,3.7,10.186,12.18,12.18,0,0,0,4.79,15.578a4.151,4.151,0,0,0,7.6,0,12.177,12.177,0,0,0,1.088-5.391,10.23,10.23,0,0,0-1.153-5.045A4.179,4.179,0,0,0,8.59,2.9Z" transform="translate(79.95 31.711)" fill="#fefefe"/>
          <path id="Fill_18" data-name="Fill 18" d="M15.474,11.343v8.363a15.894,15.894,0,0,1-5.756,1.245C3.761,20.951,0,16.323,0,10.359,0,4.832,3.761,0,9.836,0a8.65,8.65,0,0,1,4.915,1.562l-1.127,2.4a7.526,7.526,0,0,0-3.7-1.07c-3.7,0-6.219,2.923-6.219,7.523,0,4.805,2.893,7.642,5.872,7.642a5.116,5.116,0,0,0,2.43-.49V11.343h3.469" transform="translate(98.316 31.711)" fill="#fefefe"/>
          <path id="Fill_19" data-name="Fill 19" d="M3.47,20.262H0V0H5.409c4.048,0,6.277,2.077,6.277,5.848a7.062,7.062,0,0,1-.914,3.475,6.486,6.486,0,0,1-2.586,2.543l4.076,8.393H8.3L5.032,12.62H3.47v7.641Zm0-17.539V10.1c.152-.016.453-.032.744-.047.264-.014.537-.028.7-.042,1.521-.078,3.3-1.178,3.3-4.02A2.949,2.949,0,0,0,5,2.723Z" transform="translate(116.972 32.057)" fill="#fefefe"/>
          <path id="Fill_20" data-name="Fill 20" d="M3.008,20.261H0L7,0H9.892l6.451,20.26H12.467l-1.591-5.528h-6.1L3.008,20.261ZM8.012,4C7.419,6.559,6.781,8.629,6.1,10.82c-.143.464-.291.944-.437,1.422h4.687c-.162-.574-.325-1.146-.483-1.7C9.3,8.53,8.705,6.448,8.069,4Z" transform="translate(129.295 32.057)" fill="#fefefe"/>
          <path id="Fill_21" data-name="Fill 21" d="M3.47,20.261H0V0H5.408c4.048,0,6.278,2.077,6.278,5.848a7.025,7.025,0,0,1-1.775,4.666A6.38,6.38,0,0,1,5.033,12.62H3.47v7.64Zm0-17.538V10.1c.133-.016.455-.031.766-.046.256-.012.521-.025.681-.038,1.52-.078,3.3-1.178,3.3-4.02a2.936,2.936,0,0,0-3.18-3.27Z" transform="translate(146.736 32.057)" fill="#fefefe"/>
          <path id="Fill_22" data-name="Fill 22" d="M14.117,20.26H10.645V10.506h-7.2V20.26H0V0H3.442V7.787h7.2V.058h3.473Z" transform="translate(160.387 32.057)" fill="#fefefe"/>
          <path id="Fill_23" data-name="Fill 23" d="M0,20.26H3.442V0H0Z" transform="translate(177.829 32.057)" fill="#fefefe"/>
          <path id="Fill_24" data-name="Fill 24" d="M13.334,4.022A7.287,7.287,0,0,0,9.776,2.894c-3.528,0-6.1,2.923-6.1,7.522,0,4.806,2.836,7.642,6.19,7.642a6.541,6.541,0,0,0,3.471-1.015l.957,2.52A8.808,8.808,0,0,1,9.719,20.95C3.759,20.95,0,16.322,0,10.358,0,4.832,3.732,0,9.776,0a8.542,8.542,0,0,1,4.659,1.562l-1.1,2.459" transform="translate(183.556 31.711)" fill="#fefefe"/>
          <path id="Fill_25" data-name="Fill 25" d="M4.008,15.071A37.823,37.823,0,0,1,0,14.828V.243A30.423,30.423,0,0,1,3.867,0,8.894,8.894,0,0,1,10.2,2.269,7.043,7.043,0,0,1,12.35,7.393a7.552,7.552,0,0,1-2.083,5.336A8.5,8.5,0,0,1,4.008,15.071Zm0-13.694a15.043,15.043,0,0,0-2.389.162V13.511a13.989,13.989,0,0,0,2.592.162c3.993,0,6.377-2.348,6.377-6.28C10.588,3.683,8.067,1.378,4.008,1.378Z" transform="translate(294.29 9.734)" fill="#fefefe"/>
          <path id="Fill_26" data-name="Fill 26" d="M7.329,15.335a7.179,7.179,0,0,1-5.168-2.157A7.775,7.775,0,0,1,0,7.677a7.7,7.7,0,0,1,2.232-5.51A7.374,7.374,0,0,1,7.47,0a7.166,7.166,0,0,1,5.168,2.168A7.806,7.806,0,0,1,14.8,7.677a7.673,7.673,0,0,1-2.232,5.5A7.386,7.386,0,0,1,7.329,15.335ZM7.41,1.459c-3.22,0-5.648,2.673-5.648,6.219S4.19,13.9,7.41,13.9s5.629-2.673,5.629-6.219S10.619,1.459,7.41,1.459Z" transform="translate(312.729 9.592)" fill="#fefefe"/>
          <path id="Fill_27" data-name="Fill 27" d="M7.875,15.334A7.5,7.5,0,0,1,0,7.678,7.606,7.606,0,0,1,7.875,0a9.539,9.539,0,0,1,4.9,1.418L12.108,2.8A9.425,9.425,0,0,0,7.735,1.52c-3.747,0-5.973,2.654-5.973,6.158a5.84,5.84,0,0,0,6.114,6.137,9.414,9.414,0,0,0,4.373-1.277l.526,1.378a9.539,9.539,0,0,1-4.9,1.418" transform="translate(333.619 9.592)" fill="#fefefe"/>
          <path id="Fill_28" data-name="Fill 28" d="M5.567,15.091C2.166,15.091,0,13.086,0,9.521V0H1.619V9.4c0,2.978,1.621,4.234,3.948,4.234,2.308,0,3.988-1.276,3.988-4.234V0h1.62V9.521a5.251,5.251,0,0,1-5.608,5.571" transform="translate(352.262 9.835)" fill="#fefefe"/>
          <path id="Fill_29" data-name="Fill 29" d="M12.836,15.131,12.613,4.638,7.349,13.612H7.127l-5.3-8.995L1.639,15.131H0L.567.04.87,0,7.309,11.181,13.584,0l.325.04.567,15.091Z" transform="translate(370.156 9.552)" fill="#fefefe"/>
          <path id="Fill_30" data-name="Fill 30" d="M0,14.848V0H8.685V1.458H1.619V6.583H7.977V8.042H1.619V13.39H8.685v1.458Z" transform="translate(391.531 9.836)" fill="#fefefe"/>
          <path id="Fill_31" data-name="Fill 31" d="M11.257,15.415,1.621,3.868V15.131H0V.081L.325,0,9.839,11.364V.283H11.46V15.354Z" transform="translate(407.014 9.552)" fill="#fefefe"/>
          <path id="Fill_32" data-name="Fill 32" d="M6.58,1.458v13.39H4.96V1.458H0V0H11.52V1.458Z" transform="translate(424.463 9.836)" fill="#fefefe"/>
          <path id="Fill_33" data-name="Fill 33" d="M1.681,15.112H0L6.661,0h.264l6.661,15.11H11.844L10.083,11H3.442L1.681,15.111ZM6.762,3.261,4.029,9.642H9.5Z" transform="translate(439.138 9.572)" fill="#fefefe"/>
          <path id="Fill_34" data-name="Fill 34" d="M1.62,14.951H0V.243A26.247,26.247,0,0,1,3.422,0,6.615,6.615,0,0,1,7.711,1.271a4.011,4.011,0,0,1,1.42,3.185,4.344,4.344,0,0,1-.837,2.671,4.705,4.705,0,0,1-2.4,1.623l4.312,6.2H8.24L4.292,9.095H4.276c-.313.019-.638.039-.976.039-.49,0-1.2-.02-1.681-.04V14.95ZM3.665,1.459a10.935,10.935,0,0,0-2.045.162V7.657a16.727,16.727,0,0,0,1.8.1,4.528,4.528,0,0,0,3.024-.878A2.92,2.92,0,0,0,7.39,4.558C7.39,2.675,5.928,1.459,3.665,1.459Z" transform="translate(458.328 9.734)" fill="#fefefe"/>
          <path id="Fill_35" data-name="Fill 35" d="M6.823,8.264v6.584H5.2v-6.6L0,0H1.822L6.074,6.887,10.265,0h1.782Z" transform="translate(472.375 9.836)" fill="#fefefe"/>
          <path id="Fill_36" data-name="Fill 36" d="M3.468,3.164V9.1h7.85v3.08H3.468v8.159H0V0H12.4V3.164Z" transform="translate(294.889 31.569)" fill="#fefefe"/>
          <path id="Fill_37" data-name="Fill 37" d="M0,20.342H3.467V0H0Z" transform="translate(318.437 31.569)" fill="#fefefe"/>
          <path id="Fill_38" data-name="Fill 38" d="M0,20.342V0H3.468V17.179H12.4v3.163Z" transform="translate(334.496 31.569)" fill="#fefefe"/>
          <path id="Fill_39" data-name="Fill 39" d="M17.2,20.647,16.92,8.464l-6.408,9.713H10.1L3.633,8.436,3.411,20.647H0L.86.055,1.387,0,10.4,13.486,19.195,0l.554.055.861,20.592Z" transform="translate(357.35 31.265)" fill="#fefefe"/>
          <path id="Fill_40" data-name="Fill 40" d="M6.38,21.008a11.968,11.968,0,0,1-6.38-2L1.193,15.9a9.416,9.416,0,0,0,5.3,1.888c2.136,0,3.079-1.249,3.079-2.665s-.611-2.3-3.828-3.663C2.192,9.962.916,8.132.916,5.689.916,2.747,3.357,0,7.6,0a9.649,9.649,0,0,1,5.1,1.471L11.6,4.524A7.863,7.863,0,0,0,7.518,3.081c-2.136,0-3.135,1.165-3.135,2.525s1,2.165,3.522,3.274c4.022,1.748,5.187,3.385,5.187,6.05,0,3.275-2.524,6.078-6.713,6.078" transform="translate(388.607 31.236)" fill="#fefefe"/>
        </g>
      </g>
    </g>
  </g>
</svg>
