<svg id="LULAC_Shield_color_2010" xmlns="http://www.w3.org/2000/svg" xmlns:xlink="http://www.w3.org/1999/xlink" width="124.874" height="167.973" viewBox="0 0 124.874 167.973">
  <defs>
    <clipPath id="clip-path">
      <path id="Clip_2" data-name="Clip 2" d="M0,0H124.874V167.973H0Z" fill="none"/>
    </clipPath>
    <clipPath id="clip-path-2">
      <path id="Clip_32" data-name="Clip 32" d="M2.43,0,93.055,90.657C83.417,105.41,71,117.773,57,125.9,18.182,103.374-8.389,48.344,2.43,0Z" fill="none"/>
    </clipPath>
  </defs>
  <g id="Group_5" data-name="Group 5">
    <path id="Clip_2-2" data-name="Clip 2" d="M0,0H124.874V167.973H0Z" fill="none"/>
    <g id="Group_5-2" data-name="Group 5" clip-path="url(#clip-path)">
      <path id="Fill_1" data-name="Fill 1" d="M59.783,166.4a109.005,109.005,0,0,1-27.858-23.556,133.318,133.318,0,0,1-20.356-32.227C.325,85.589-2.856,58.562,2.611,34.514a99.306,99.306,0,0,1,8.14-22.928l2.029-4,4.313,1.188a69.8,69.8,0,0,0,18.331,2.742c13.746,0,20.129-5.553,22.531-7.643.511-.445,4.4-3.874,4.4-3.874s3.96,3.429,4.472,3.874c2.4,2.09,8.782,7.643,22.527,7.643h.005a69.882,69.882,0,0,0,18.331-2.742l4.313-1.188,2.028,4c9.12,17.96,12.583,38.955,10.019,60.714a134.227,134.227,0,0,1-20.885,57.107l.008.005C92.853,145.212,79.75,158,65.279,166.4l-2.748,1.594L59.783,166.4" transform="translate(0)" fill="#fffffe"/>
      <path id="Fill_3" data-name="Fill 3" d="M90.555,119.241c21.2-32.466,28.965-76.5,10.691-112.5C68.585,15.738,56.5,1.342,54.494,0c-2,1.342-14.089,15.738-46.75,6.745A93,93,0,0,0,0,28.262" transform="translate(7.827 7.43)" fill="#fffffe"/>
      <path id="Stroke_4" data-name="Stroke 4" d="M90.555,119.241c21.2-32.466,28.965-76.5,10.691-112.5C68.585,15.738,56.5,1.342,54.494,0c-2,1.342-14.089,15.738-46.75,6.745A93,93,0,0,0,0,28.262" transform="translate(7.827 7.43)" fill="none" stroke="#1b2647" stroke-miterlimit="10" stroke-width="5.428"/>
    </g>
  </g>
  <path id="Fill_6" data-name="Fill 6" d="M89.65,97.824,0,7.86C29.309,14.415,40.375,1.277,42.285,0c2,1.342,14.089,15.738,46.752,6.746,14.5,28.56,12.606,62.186.613,91.077" transform="translate(20.08 7.419)" fill="#1b2647"/>
  <path id="Stroke_7" data-name="Stroke 7" d="M89.65,97.824,0,7.86C29.309,14.415,40.375,1.277,42.285,0c2,1.342,14.089,15.738,46.752,6.746C103.535,35.306,101.643,68.932,89.65,97.824Z" transform="translate(20.08 7.419)" fill="none" stroke="#1b2647" stroke-miterlimit="10" stroke-width="1.811"/>
  <path id="Fill_9" data-name="Fill 9" d="M1.816,9.685,2.959,6.079,0,3.984H3.7L5.064,0,6.418,3.984h3.7L7.158,6.079,8.3,9.685,5.064,7.6,1.816,9.685" transform="translate(98.082 82.421)" fill="#fffffe"/>
  <path id="Fill_10" data-name="Fill 10" d="M1.812,9.685,2.958,6.079,0,3.984H3.7L5.06,0,6.417,3.984h3.7L7.154,6.079,8.3,9.685,5.06,7.6,1.812,9.685" transform="translate(99.365 67.325)" fill="#fffffe"/>
  <path id="Fill_11" data-name="Fill 11" d="M1.811,9.685,2.958,6.078,0,3.981H3.693L5.059,0,6.418,3.981h3.7l-2.964,2.1L8.3,9.685,5.059,7.6,1.811,9.685" transform="translate(100.648 52.23)" fill="#fffffe"/>
  <path id="Fill_12" data-name="Fill 12" d="M1.815,9.684l1.144-3.6L0,3.983H3.7L5.058,0,6.42,3.983h3.7L7.158,6.08l1.14,3.6L5.058,7.6,1.815,9.684" transform="translate(101.925 37.134)" fill="#fffffe"/>
  <path id="Fill_13" data-name="Fill 13" d="M1.812,9.684,2.958,6.079,0,3.983H3.7L5.057,0,6.415,3.983h3.7l-2.964,2.1L8.3,9.684,5.057,7.6,1.812,9.684" transform="translate(83.996 59.938)" fill="#fffffe"/>
  <path id="Fill_14" data-name="Fill 14" d="M1.815,9.685,2.958,6.077,0,3.983H3.7L5.059,0,6.42,3.983h3.7L7.158,6.077,8.3,9.685,5.059,7.6,1.815,9.685" transform="translate(85.274 44.842)" fill="#fffffe"/>
  <path id="Fill_15" data-name="Fill 15" d="M1.812,9.684,2.958,6.077,0,3.983H3.693L5.057,0,6.416,3.983h3.7L7.152,6.077,8.3,9.684,5.057,7.6,1.812,9.684" transform="translate(86.558 29.747)" fill="#fffffe"/>
  <path id="Fill_16" data-name="Fill 16" d="M1.815,9.686,2.957,6.077,0,3.982H3.7L5.058,0,6.417,3.982h3.7l-2.961,2.1L8.3,9.686,5.058,7.6,1.815,9.686" transform="translate(68.625 52.552)" fill="#fffffe"/>
  <path id="Fill_17" data-name="Fill 17" d="M1.813,9.685,2.96,6.078,0,3.982H3.695L5.06,0,6.417,3.982h3.7l-2.964,2.1L8.3,9.685,5.06,7.6,1.813,9.685" transform="translate(69.905 37.456)" fill="#fffffe"/>
  <path id="Fill_18" data-name="Fill 18" d="M1.818,9.684l1.14-3.605L0,3.983H3.7L5.061,0,6.416,3.983h3.7l-2.964,2.1L8.3,9.684,5.061,7.6,1.818,9.684" transform="translate(71.185 22.36)" fill="#fffffe"/>
  <path id="Fill_19" data-name="Fill 19" d="M1.813,9.686,2.959,6.078,0,3.983H3.694L5.058,0l1.36,3.983h3.7l-2.965,2.1L8.3,9.686,5.058,7.6,1.813,9.686" transform="translate(54.535 30.069)" fill="#fffffe"/>
  <path id="Fill_20" data-name="Fill 20" d="M1.815,9.686,2.958,6.079,0,3.985H3.7L5.06,0,6.417,3.985h3.7L7.155,6.079,8.3,9.686,5.06,7.6,1.815,9.686" transform="translate(55.815 14.972)" fill="#fffffe"/>
  <path id="Fill_21" data-name="Fill 21" d="M1.813,9.686,2.959,6.079,0,3.983H3.7L5.06,0,6.417,3.983h3.7l-2.965,2.1L8.3,9.686,5.06,7.6,1.813,9.686" transform="translate(39.164 22.681)" fill="#fffffe"/>
  <path id="Fill_22" data-name="Fill 22" d="M0,9.361l.54-.544c1,1.007,1.548,1.117,2.226.436L9.223,2.776c.681-.683.57-1.225-.434-2.231L9.331,0,14.27,4.954l-.543.544c-1-1.008-1.546-1.115-2.224-.435L5.072,11.512c-.651.654-.6,1.088.082,1.767,1.37,1.376,3.854,1.035,5.753-.161l.583.585-3.664,3.51L0,9.361" transform="translate(15.77 28.27)" fill="#1b2647"/>
  <path id="Fill_23" data-name="Fill 23" d="M11.345,4.8l-.541.545c-1.058-1.063-1.6-1.17-2.279-.491L2.933,10.463a2.644,2.644,0,0,0,.1,3.8c1.518,1.524,3.08,1.511,4.653-.068L12.62,9.238c.678-.678.571-1.225-.42-2.49l.542-.544,3.434,3.442-.545.544c-1.056-.788-1.6-.9-2.279-.217L8.524,14.818C6.38,16.968,4.115,16.6,1.863,14.343c-1.506-1.511-2.89-4.1-.8-6.193L6.434,2.763C7.113,2.081,7,1.538,6.015.544L6.556,0l4.788,4.8" transform="translate(34.38 44.154)" fill="#1b2647"/>
  <path id="Fill_24" data-name="Fill 24" d="M0,9.361l.543-.543c1,1.007,1.546,1.114,2.224.435l6.46-6.477C9.9,2.094,9.8,1.551,8.79.545L9.334,0l4.937,4.954-.542.544c-1-1.007-1.545-1.116-2.222-.436L5.074,11.511c-.652.656-.6,1.09.082,1.77,1.369,1.375,3.853,1.034,5.753-.164l.584.586-3.664,3.51L0,9.361" transform="translate(49.014 61.617)" fill="#1b2647"/>
  <path id="Fill_25" data-name="Fill 25" d="M10.31,15.022h0l-4.9-4.912.542-.546.544.546c.389.39.66.564.879.564a.534.534,0,0,0,.381-.2,2,2,0,0,0,.394-.7l.895-2.23L6.063,4.557l-1.5.641a3.368,3.368,0,0,0-1.021.694c-.4.4-.346.9.15,1.4l.665.667L3.812,8.5,0,4.676l.544-.541a2.794,2.794,0,0,0,1.629.6,5.322,5.322,0,0,0,1.911-.509L14.325,0l.719.722L10.47,12.271a1.807,1.807,0,0,0,.382,2.206l-.542.545Zm.772-12.587L7.066,4.149,9.453,6.543Z" transform="translate(64.648 81.978)" fill="#1b2647"/>
  <g id="Group_30" data-name="Group 30" transform="translate(5.335 35.968)">
    <path id="Fill_26" data-name="Fill 26" d="M11.878,9.215l-.541-.541c1.221-2.64,1.466-4.409-.111-5.989C9.546,1,7.266,1.816,4.607,4.481,1.84,7.256,1.323,9.626,3.169,11.475c1.793,1.8,3.96,1.688,6.119-.258l.6.6c-2.375,2.381-5.16,2.475-7.64-.014a6.627,6.627,0,0,1-.137-9.826A6.889,6.889,0,0,1,11.7,1.91,7.8,7.8,0,0,1,13.56,5.378l1.086-.025.542.543-3.31,3.32" transform="translate(80.065 62.285)" fill="#1b2647"/>
    <path id="Fill_28" data-name="Fill 28" d="M93.055,90.657,2.43,0C-8.389,48.344,18.182,103.374,57,125.9c14-8.126,26.417-20.489,36.055-35.242" transform="translate(0 0)" fill="#fffffe"/>
    <path id="Stroke_29" data-name="Stroke 29" d="M93.055,90.657,2.43,0C-8.389,48.344,18.182,103.374,57,125.9,71,117.773,83.417,105.41,93.055,90.657Z" transform="translate(0 0)" fill="none" stroke="#af243d" stroke-miterlimit="10" stroke-width="5.428"/>
  </g>
  <g id="Group_39" data-name="Group 39" transform="translate(5.335 35.968)">
    <path id="Clip_32-2" data-name="Clip 32" d="M2.43,0,93.055,90.657C83.417,105.41,71,117.773,57,125.9,18.182,103.374-8.389,48.344,2.43,0Z" transform="translate(0 0)" fill="none"/>
    <g id="Group_39-2" data-name="Group 39" transform="translate(0 0)" clip-path="url(#clip-path-2)">
      <path id="Fill_31" data-name="Fill 31" d="M0,83.509H7.11V0H0Z" transform="translate(28.77 26.253)" fill="#af243d"/>
      <path id="Fill_33" data-name="Fill 33" d="M0,18.627H7.046V0H0Z" transform="translate(85.16 82.784)" fill="#af243d"/>
      <path id="Fill_34" data-name="Fill 34" d="M0,46.251H7.078V0H0Z" transform="translate(71.038 68.65)" fill="#af243d"/>
      <path id="Fill_35" data-name="Fill 35" d="M0,71.63H7.078V0H0Z" transform="translate(56.951 54.193)" fill="#af243d"/>
      <path id="Fill_36" data-name="Fill 36" d="M0,81.9H7.078V0H0Z" transform="translate(42.86 40.065)" fill="#af243d"/>
      <path id="Fill_37" data-name="Fill 37" d="M0,80.294H7.076V0H0Z" transform="translate(14.683 12.123)" fill="#af243d"/>
      <path id="Fill_38" data-name="Fill 38" d="M0,63.6H7.076V0H0Z" transform="translate(0.626 1.202)" fill="#af243d"/>
    </g>
  </g>
</svg>
