<svg xmlns="http://www.w3.org/2000/svg" xmlns:xlink="http://www.w3.org/1999/xlink" width="78.054" height="78.195" viewBox="0 0 78.054 78.195">
  <defs>
    <clipPath id="clip-path">
      <path id="Clip_2" data-name="Clip 2" d="M0,0H78.054V78.195H0Z" transform="translate(0 0)" fill="none"/>
    </clipPath>
  </defs>
  <g id="Group_3" data-name="Group 3" transform="translate(0 0)">
    <path id="Clip_2-2" data-name="Clip 2" d="M0,0H78.054V78.195H0Z" transform="translate(0 0)" fill="none"/>
    <g id="Group_3-2" data-name="Group 3" clip-path="url(#clip-path)">
      <path id="Fill_1" data-name="Fill 1" d="M13.255,78.195h0c-3.1,0-6.366-1.411-9.7-4.193A10.229,10.229,0,0,1,.034,66.787a13.234,13.234,0,0,1,3.318-9.714,24.824,24.824,0,0,1,2.981-2.693c.458-.371.931-.754,1.376-1.14.848-9.792,1.563-18.057,2.349-27.138l.019-.216.466-5.386A4.747,4.747,0,0,1,14.6,16.108a3.454,3.454,0,0,1,.391-.023,2.742,2.742,0,0,1,2.016.9C23.787,23.6,53.391,53.048,61.315,61.031a3.964,3.964,0,0,1,.568,3.85A3.081,3.081,0,0,1,59.3,67.054a88.089,88.089,0,0,1-10.879.6c-1.81,0-3.495-.034-5.352-.076l-.26-.006c-1.615-.036-3.137-.071-4.583-.071-5.63,0-9.675.524-12.436,3.135-.434.411-.871.836-1.334,1.286-1.026,1-2.086,2.029-3.22,3A12.259,12.259,0,0,1,13.255,78.195ZM60.177,44.473a3.891,3.891,0,0,1-3.14-1.952c-.87-7.965-2.508-12.63-5.478-15.6S44.123,22.507,36.621,22.1c-2.922-1.8-2.638-3.818-1.9-5.73a28.651,28.651,0,0,1,5.864-.627,23.223,23.223,0,0,1,9.33,1.876,20.885,20.885,0,0,1,7.266,5.243c4.622,5.157,6.678,12.461,5.789,20.566A5.013,5.013,0,0,1,60.177,44.473Zm14.189-2.991h0c-.321,0-.651-.019-.97-.037s-.643-.036-.958-.036c-2.258-2.031-2.462-4.619-2.347-7.113.269-5.831-2.512-12.249-7.63-17.609-5.342-5.595-12.3-8.935-18.616-8.935-.155,0-.3,0-.458.006l-.232,0a20.639,20.639,0,0,1-4.476-.678c-.765-.172-1.555-.35-2.364-.491-.078-.941-.143-1.73-.2-2.426-.049-.6-.093-1.123-.134-1.622A7.213,7.213,0,0,1,41.672,0a11.6,11.6,0,0,1,1.575.114c16.215,2.224,27.188,10.9,32.614,25.793a38.3,38.3,0,0,1,1.9,6.708,17.877,17.877,0,0,1-.137,7.154c-.216.177-.423.379-.624.574a3.552,3.552,0,0,1-1.4,1A4.668,4.668,0,0,1,74.367,41.482Z" transform="translate(0 0)" />
    </g>
  </g>
</svg>
